<?xml version="1.0" encoding="UTF-8" standalone="no"?>
<!-- Uploaded to: SVG Repo, www.svgrepo.com, Generator: SVG Repo Mixer Tools -->

<svg
   version="1.1"
   id="_x36_"
   viewBox="0 0 512 512"
   xml:space="preserve"
   sodipodi:docname="pony-bay.svg"
   inkscape:version="1.3.2 (091e20e, 2023-11-25, custom)"
   xmlns:inkscape="http://www.inkscape.org/namespaces/inkscape"
   xmlns:sodipodi="http://sodipodi.sourceforge.net/DTD/sodipodi-0.dtd"
   xmlns="http://www.w3.org/2000/svg"
   xmlns:svg="http://www.w3.org/2000/svg"><defs
   id="defs38" /><sodipodi:namedview
   id="namedview38"
   pagecolor="#ffffff"
   bordercolor="#000000"
   borderopacity="0.25"
   inkscape:showpageshadow="2"
   inkscape:pageopacity="0.0"
   inkscape:pagecheckerboard="0"
   inkscape:deskcolor="#d1d1d1"
   inkscape:zoom="2.6972656"
   inkscape:cx="255.81463"
   inkscape:cy="256"
   inkscape:window-width="3758"
   inkscape:window-height="1577"
   inkscape:window-x="-8"
   inkscape:window-y="-8"
   inkscape:window-maximized="1"
   inkscape:current-layer="g38" />
<g
   id="g38">
	<path
   style="fill:#89929F;"
   d="M496.488,15.512V512H0.221V63.22H0V18.966h0.441C0.147,17.862,0,16.687,0,15.512   C0,6.983,6.91,0,15.511,0h465.467C489.579,0,496.488,6.983,496.488,15.512z"
   id="path1" />
	<rect
   x="8.977"
   y="60.792"
   style="fill:#FFFFFF;"
   width="478.535"
   height="440.929"
   id="rect1" />
	<rect
   x="8.977"
   y="60.792"
   style="opacity:0.06;fill:#0D0D0D;"
   width="478.535"
   height="20.134"
   id="rect2" />
	<g
   id="g4">
		<ellipse
   style="fill:#8BC66F;"
   cx="121.998"
   cy="31.584"
   rx="11.773"
   ry="12.532"
   id="ellipse2" />
		<ellipse
   style="fill:#F4DB6D;"
   cx="79.168"
   cy="31.584"
   rx="11.773"
   ry="12.532"
   id="ellipse3" />
		<ellipse
   style="fill:#E06276;"
   cx="36.339"
   cy="31.584"
   rx="11.773"
   ry="12.532"
   id="ellipse4" />
	</g>
	<g
   style="opacity:0.5;"
   id="g13">
		<g
   id="g8">
			<rect
   x="132.793"
   y="361.304"
   style="fill:#ADBFBC;"
   width="62.849"
   height="52.475"
   id="rect4" />
			<g
   id="g7">
				<rect
   x="205.626"
   y="402.887"
   style="fill:#ADBFBC;"
   width="41.999"
   height="7.227"
   id="rect5" />
				<rect
   x="205.626"
   y="363.435"
   style="fill:#ADBFBC;"
   width="86.751"
   height="7.556"
   id="rect6" />
				<rect
   x="205.626"
   y="383.079"
   style="fill:#ADBFBC;"
   width="86.751"
   height="7.556"
   id="rect7" />
			</g>
		</g>
		<g
   id="g12">
			<rect
   x="132.793"
   y="361.304"
   style="opacity:0.5;fill:#899C99;"
   width="62.849"
   height="52.475"
   id="rect8" />
			<g
   style="opacity:0.5;"
   id="g11">
				<rect
   x="205.626"
   y="402.887"
   style="fill:#899C99;"
   width="41.999"
   height="7.227"
   id="rect9" />
				<rect
   x="205.626"
   y="363.435"
   style="fill:#899C99;"
   width="86.751"
   height="7.556"
   id="rect10" />
				<rect
   x="205.626"
   y="383.079"
   style="fill:#899C99;"
   width="86.751"
   height="7.556"
   id="rect11" />
			</g>
		</g>
	</g>
	<rect
   x="204.869"
   y="463.572"
   style="opacity:0.5;fill:#ADBFBC;"
   width="86.751"
   height="7.556"
   id="rect13" />
	<g
   id="g17">
		<rect
   x="30.826"
   y="186.479"
   style="opacity:0.5;fill:#ADBFBC;"
   width="88.745"
   height="24.728"
   id="rect14" />
		<rect
   x="30.826"
   y="227.217"
   style="opacity:0.5;fill:#ADBFBC;"
   width="88.745"
   height="24.728"
   id="rect15" />
		<rect
   x="30.826"
   y="267.955"
   style="opacity:0.5;fill:#ADBFBC;"
   width="88.745"
   height="24.728"
   id="rect16" />
		<rect
   x="30.826"
   y="308.692"
   style="opacity:0.5;fill:#ADBFBC;"
   width="88.745"
   height="24.728"
   id="rect17" />
	</g>
	<rect
   x="28.947"
   y="149.097"
   style="opacity:0.5;fill:#ADBFBC;"
   width="438.595"
   height="20.958"
   id="rect18" />
	<rect
   x="28.947"
   y="436.925"
   style="opacity:0.5;fill:#ADBFBC;"
   width="438.595"
   height="4.418"
   id="rect19" />
	<g
   style="opacity:0.5;"
   id="g29">
		<g
   id="g24">
			<rect
   x="309.54"
   y="360.62"
   style="fill:#ADBFBC;"
   width="62.849"
   height="52.475"
   id="rect20" />
			<g
   id="g23">
				<rect
   x="382.373"
   y="402.203"
   style="fill:#ADBFBC;"
   width="41.999"
   height="7.227"
   id="rect21" />
				<rect
   x="382.373"
   y="362.751"
   style="fill:#ADBFBC;"
   width="86.751"
   height="7.556"
   id="rect22" />
				<rect
   x="382.373"
   y="382.395"
   style="fill:#ADBFBC;"
   width="86.751"
   height="7.556"
   id="rect23" />
			</g>
		</g>
		<g
   id="g28">
			<rect
   x="309.54"
   y="360.62"
   style="opacity:0.5;fill:#899C99;"
   width="62.849"
   height="52.475"
   id="rect24" />
			<g
   style="opacity:0.5;"
   id="g27">
				<rect
   x="382.373"
   y="402.203"
   style="fill:#899C99;"
   width="41.999"
   height="7.227"
   id="rect25" />
				<rect
   x="382.373"
   y="362.751"
   style="fill:#899C99;"
   width="86.751"
   height="7.556"
   id="rect26" />
				<rect
   x="382.373"
   y="382.395"
   style="fill:#899C99;"
   width="86.751"
   height="7.556"
   id="rect27" />
			</g>
		</g>
	</g>
	<path
   style="fill:#7BCAD4;"
   d="M422.251,106.938c-0.679-2.9-2.087-5.582-4.068-7.789c-1.982-2.21-4.54-3.945-7.53-4.941   c-0.308-0.103-0.621-0.2-0.938-0.286c-2.809-0.768-5.643-0.808-8.308-0.242c-3.152,0.67-6.064,2.191-8.408,4.381l13.008,13.14   l0.03,0.031h-0.001l-0.03-0.031l-0.023,0.084l0,0l0.023-0.084L393,98.061c-2.306,2.157-4.066,4.958-4.96,8.228   c-0.895,3.27-0.805,6.576,0.083,9.606c0.905,3.08,2.637,5.87,5.01,8.051c0.02,0.018,0.039,0.038,0.062,0.055   c1.992,1.816,4.432,3.204,7.212,3.965c0.317,0.086,0.635,0.162,0.952,0.231c3.08,0.664,6.167,0.47,8.996-0.422   c0.025-0.008,0.052-0.017,0.077-0.027c2.8-0.896,5.347-2.479,7.388-4.611l0,0l0,0l0,0l0,0c1.964-2.051,3.46-4.608,4.262-7.54   C422.885,112.664,422.898,109.703,422.251,106.938z"
   id="path29" />
	<path
   style="fill:#4F9FD8;"
   d="M462.539,106.938c-0.679-2.9-2.087-5.582-4.068-7.789c-1.982-2.21-4.54-3.945-7.53-4.941   c-0.308-0.103-0.62-0.2-0.938-0.286c-2.809-0.768-5.643-0.808-8.308-0.242c-3.152,0.67-6.064,2.191-8.408,4.381l13.008,13.14   l0.03,0.031h-0.001l-0.03-0.031l-0.023,0.084l0,0l0.023-0.084l-13.008-13.14c-2.306,2.157-4.066,4.958-4.96,8.228   c-0.895,3.27-0.805,6.576,0.083,9.606c0.905,3.08,2.637,5.87,5.01,8.051c0.02,0.018,0.039,0.038,0.062,0.055   c1.992,1.816,4.432,3.204,7.212,3.965c0.317,0.086,0.635,0.162,0.953,0.231c3.08,0.664,6.167,0.47,8.996-0.422   c0.025-0.008,0.052-0.017,0.077-0.027c2.8-0.896,5.347-2.479,7.388-4.611l0,0l0,0l0,0l0,0c1.964-2.051,3.46-4.608,4.262-7.54   C463.173,112.664,463.186,109.703,462.539,106.938z"
   id="path30" />
	
	<g
   id="g37">
		<rect
   x="132.492"
   y="186.855"
   style="fill:#FBDCB4;"
   width="335.05"
   height="162.198"
   id="rect34" />
		<ellipse
   style="opacity:0.8;fill:#EEF4D4;"
   cx="284.444"
   cy="218.287"
   rx="24.088"
   ry="23.52"
   id="ellipse34" />
		<g
   style="opacity:0.5;"
   id="g35">
			<path
   style="fill:#DF6D65;"
   d="M324.926,349.054H132.793l68.302-78.896c15.254-17.637,40.275-17.637,55.529,0l25.924,29.985     L324.926,349.054z"
   id="path35" />
		</g>
		<g
   style="opacity:0.5;"
   id="g36">
			<path
   style="fill:#DF6D65;"
   d="M467.542,313.711v35.343H243l42.534-48.911l56.577-64.989c15.671-18.112,41.449-18.112,57.119,0     L467.542,313.711z"
   id="path36" />
		</g>
	</g>
<text
   xml:space="preserve"
   style="font-size:48px;line-height:1.1;font-family:Raleway;-inkscape-font-specification:Raleway;font-variant-numeric:lining-nums;text-align:center;letter-spacing:0px;word-spacing:0px;text-anchor:middle;fill:#ff0000;stroke-width:2"
   x="100.84287"
   y="121.97538"
   id="text38"><tspan
     sodipodi:role="line"
     id="tspan38"></tspan></text><text
   xml:space="preserve"
   style="font-size:48px;line-height:1.1;font-family:Raleway;-inkscape-font-specification:Raleway;font-variant-numeric:lining-nums;text-align:center;letter-spacing:0px;word-spacing:0px;text-anchor:middle;fill:#1a1a1a;stroke-width:2"
   x="182.14969"
   y="130.05176"
   id="text39"><tspan
     sodipodi:role="line"
     id="tspan39"
     x="182.14969"
     y="130.05176">The Pony Bay</tspan></text></g>
</svg>
